<?xml version="1.0" encoding="UTF-8" standalone="no"?>
<!DOCTYPE svg PUBLIC "-//W3C//DTD SVG 1.1//EN"
 "http://www.w3.org/Graphics/SVG/1.1/DTD/svg11.dtd">
<!-- Generated by graphviz version 2.43.0 (0)
 -->
<!-- Title: Cluster nesting Pages: 1 -->
<svg width="1033pt" height="578pt"
 viewBox="0.00 0.00 1033.00 578.00" xmlns="http://www.w3.org/2000/svg" xmlns:xlink="http://www.w3.org/1999/xlink">
<g id="graph0" class="graph" transform="scale(1 1) rotate(0) translate(144 434)">
<title>Cluster nesting</title>
<polygon fill="white" stroke="transparent" points="-144,144 -144,-434 889,-434 889,144 -144,144"/>
<text text-anchor="middle" x="372.5" y="-9" font-family="Sans-Serif" font-size="15.00" fill="#2d3436">Cluster nesting</text>
<g id="clust1" class="cluster">
<title>cluster_Kubernetes</title>
<path fill="#e5f5fd" stroke="#aeb6be" d="M151,-33C151,-33 725,-33 725,-33 731,-33 737,-39 737,-45 737,-45 737,-270 737,-270 737,-276 731,-282 725,-282 725,-282 151,-282 151,-282 145,-282 139,-276 139,-270 139,-270 139,-45 139,-45 139,-39 145,-33 151,-33"/>
<text text-anchor="middle" x="180.5" y="-268.4" font-family="Sans-Serif" font-size="12.00" fill="#2d3436">Kubernetes</text>
</g>
<g id="clust2" class="cluster">
<title>cluster_Nginx</title>
<path fill="#ebf3e7" stroke="#aeb6be" d="M159,-49C159,-49 252,-49 252,-49 258,-49 264,-55 264,-61 264,-61 264,-212 264,-212 264,-218 258,-224 252,-224 252,-224 159,-224 159,-224 153,-224 147,-218 147,-212 147,-212 147,-61 147,-61 147,-55 153,-49 159,-49"/>
<text text-anchor="middle" x="172" y="-210.4" font-family="Sans-Serif" font-size="12.00" fill="#2d3436">Nginx</text>
</g>
<g id="clust3" class="cluster">
<title>cluster_MyApp</title>
<path fill="#ebf3e7" stroke="#aeb6be" d="M314,-41C314,-41 570,-41 570,-41 576,-41 582,-47 582,-53 582,-53 582,-241 582,-241 582,-247 576,-253 570,-253 570,-253 314,-253 314,-253 308,-253 302,-247 302,-241 302,-241 302,-53 302,-53 302,-47 308,-41 314,-41"/>
<text text-anchor="middle" x="330" y="-239.4" font-family="Sans-Serif" font-size="12.00" fill="#2d3436">MyApp</text>
</g>
<g id="clust4" class="cluster">
<title>cluster_Pods</title>
<path fill="#ece8f6" stroke="#aeb6be" d="M469,-49C469,-49 562,-49 562,-49 568,-49 574,-55 574,-61 574,-61 574,-212 574,-212 574,-218 568,-224 562,-224 562,-224 469,-224 469,-224 463,-224 457,-218 457,-212 457,-212 457,-61 457,-61 457,-55 463,-49 469,-49"/>
<text text-anchor="middle" x="479.5" y="-210.4" font-family="Sans-Serif" font-size="12.00" fill="#2d3436">Pods</text>
</g>
<g id="clust5" class="cluster">
<title>cluster_MySQL</title>
<path fill="#ebf3e7" stroke="#aeb6be" d="M624,-49C624,-49 717,-49 717,-49 723,-49 729,-55 729,-61 729,-61 729,-212 729,-212 729,-218 723,-224 717,-224 717,-224 624,-224 624,-224 618,-224 612,-218 612,-212 612,-212 612,-61 612,-61 612,-55 618,-49 624,-49"/>
<text text-anchor="middle" x="640" y="-210.4" font-family="Sans-Serif" font-size="12.00" fill="#2d3436">MySQL</text>
</g>
<!-- 3bfb373513694fdf944ccab260c967a5 -->
<g id="node1" class="node">
<title>3bfb373513694fdf944ccab260c967a5</title>
<image xlink:href="/home/lucas/w/ldr2svg/.venv/lib/python3.10/site-packages/resources/gcp/network/load-balancing.png" width="101px" height="101px" preserveAspectRatio="xMinYMin meet" x="0" y="-176.5"/>
<text text-anchor="middle" x="50.5" y="-61.1" font-family="Sans-Serif" font-size="13.00" fill="#2d3436">GCP LB</text>
</g>
<!-- f68ab1c7bc6141f5a56fbca79023a6cc -->
<g id="node2" class="node">
<title>f68ab1c7bc6141f5a56fbca79023a6cc</title>
<image xlink:href="/home/lucas/w/ldr2svg/.venv/lib/python3.10/site-packages/resources/onprem/network/nginx.png" width="101px" height="101px" preserveAspectRatio="xMinYMin meet" x="155" y="-176.5"/>
</g>
<!-- 3bfb373513694fdf944ccab260c967a5&#45;&gt;f68ab1c7bc6141f5a56fbca79023a6cc -->
<g id="edge1" class="edge">
<title>3bfb373513694fdf944ccab260c967a5:c&#45;&gt;f68ab1c7bc6141f5a56fbca79023a6cc:c</title>
<path fill="none" stroke="#7b8894" d="M101.25,-126C101.25,-126 144.9,-126 144.9,-126"/>
<polygon fill="#7b8894" stroke="#7b8894" points="144.9,-129.5 154.9,-126 144.9,-122.5 144.9,-129.5"/>
</g>
<!-- 8027040c952648d89a15a89886746ee8 -->
<g id="node3" class="node">
<title>8027040c952648d89a15a89886746ee8</title>
<image xlink:href="/home/lucas/w/ldr2svg/.venv/lib/python3.10/site-packages/resources/k8s/network/ing.png" width="101px" height="101px" preserveAspectRatio="xMinYMin meet" x="310" y="-176.5"/>
</g>
<!-- f68ab1c7bc6141f5a56fbca79023a6cc&#45;&gt;8027040c952648d89a15a89886746ee8 -->
<g id="edge2" class="edge">
<title>f68ab1c7bc6141f5a56fbca79023a6cc:c&#45;&gt;8027040c952648d89a15a89886746ee8:c</title>
<path fill="none" stroke="#7b8894" d="M256.25,-126C256.25,-126 299.9,-126 299.9,-126"/>
<polygon fill="#7b8894" stroke="#7b8894" points="299.9,-129.5 309.9,-126 299.9,-122.5 299.9,-129.5"/>
</g>
<!-- 601ce638f0bc4c6d91b868379d200ee3 -->
<g id="node4" class="node">
<title>601ce638f0bc4c6d91b868379d200ee3</title>
<image xlink:href="/home/lucas/w/ldr2svg/.venv/lib/python3.10/site-packages/resources/k8s/compute/pod.png" width="101px" height="101px" preserveAspectRatio="xMinYMin meet" x="465" y="-176.5"/>
<text text-anchor="middle" x="515.5" y="-61.1" font-family="Sans-Serif" font-size="13.00" fill="#2d3436">myapp</text>
</g>
<!-- 8027040c952648d89a15a89886746ee8&#45;&gt;601ce638f0bc4c6d91b868379d200ee3 -->
<g id="edge3" class="edge">
<title>8027040c952648d89a15a89886746ee8:c&#45;&gt;601ce638f0bc4c6d91b868379d200ee3:c</title>
<path fill="none" stroke="#7b8894" d="M411.25,-126C411.25,-126 454.9,-126 454.9,-126"/>
<polygon fill="#7b8894" stroke="#7b8894" points="454.9,-129.5 464.9,-126 454.9,-122.5 454.9,-129.5"/>
</g>
<!-- b97d40f630524d6090b8fbdd09b0ca3f -->
<g id="node5" class="node">
<title>b97d40f630524d6090b8fbdd09b0ca3f</title>
<image xlink:href="/home/lucas/w/ldr2svg/.venv/lib/python3.10/site-packages/resources/k8s/compute/pod.png" width="101px" height="101px" preserveAspectRatio="xMinYMin meet" x="620" y="-176.5"/>
<text text-anchor="middle" x="670.5" y="-61.1" font-family="Sans-Serif" font-size="13.00" fill="#2d3436">myapp&#45;db</text>
</g>
<!-- 601ce638f0bc4c6d91b868379d200ee3&#45;&gt;b97d40f630524d6090b8fbdd09b0ca3f -->
<g id="edge4" class="edge">
<title>601ce638f0bc4c6d91b868379d200ee3&#45;&gt;b97d40f630524d6090b8fbdd09b0ca3f</title>
<path fill="none" stroke="#7b8894" d="M566.25,-126C566.25,-126 609.9,-126 609.9,-126"/>
<polygon fill="#7b8894" stroke="#7b8894" points="609.9,-129.5 619.9,-126 609.9,-122.5 609.9,-129.5"/>
</g>
</g>
</svg>
